{
  "accessors": [
    {
      "bufferView": 2,
      "componentType": 5126,
      "count": 200,
      "max": [
        12.49331283569336,
        124.25395202636719,
        12.49331283569336
      ],
      "min": [
        -0.0,
        7.75087308883667,
        -12.493314743041992
      ],
      "type": "VEC3"
    },
    {
      "bufferView": 2,
      "byteOffset": 2400,
      "componentType": 5126,
      "count": 200,
      "max": [
        1.0,
        -0.0,
        0.9994010925292969
      ],
      "min": [
        -0.07992996275424957,
        -0.0,
        -0.9994007349014282
      ],
      "type": "VEC3"
    },
    {
      "bufferView": 1,
      "componentType": 5126,
      "count": 200,
      "max": [
        0.9921879768371582,
        -0.0
      ],
      "min": [
        0.007813000120222569,
        -7.0
      ],
      "type": "VEC2"
    },
    {
      "bufferView": 0,
      "componentType": 5125,
      "count": 288,
      "type": "SCALAR"
    },
    {
      "bufferView": 2,
      "byteOffset": 4800,
      "componentType": 5126,
      "count": 204,
      "max": [
        0.0,
        124.25395202636719,
        12.49331283569336
      ],
      "min": [
        -12.49331283569336,
        7.75087308883667,
        -12.493314743041992
      ],
      "type": "VEC3"
    },
    {
      "bufferView": 2,
      "byteOffset": 7248,
      "componentType": 5126,
      "count": 204,
      "max": [
        0.0799269750714302,
        -0.0,
        0.9994007349014282
      ],
      "min": [
        -1.0,
        -0.0,
        -0.9994010925292969
      ],
      "type": "VEC3"
    },
    {
      "bufferView": 1,
      "byteOffset": 1600,
      "componentType": 5126,
      "count": 204,
      "max": [
        0.9921879768371582,
        -0.0
      ],
      "min": [
        0.007813000120222569,
        -7.0
      ],
      "type": "VEC2"
    },
    {
      "bufferView": 0,
      "byteOffset": 1152,
      "componentType": 5125,
      "count": 288,
      "type": "SCALAR"
    },
    {
      "bufferView": 2,
      "byteOffset": 9696,
      "componentType": 5126,
      "count": 2325,
      "max": [
        12.493315696716309,
        7.758554935455322,
        12.493361473083496
      ],
      "min": [
        -9.999999974752427e-07,
        -0.0,
        -12.493313789367676
      ],
      "type": "VEC3"
    },
    {
      "bufferView": 2,
      "byteOffset": 37596,
      "componentType": 5126,
      "count": 2325,
      "max": [
        1.0,
        0.5909599661827087,
        1.0
      ],
      "min": [
        -0.5675801038742065,
        -0.5909650921821594,
        -1.0
      ],
      "type": "VEC3"
    },
    {
      "bufferView": 1,
      "byteOffset": 3232,
      "componentType": 5126,
      "count": 2325,
      "max": [
        0.992218017578125,
        -0.0039059999398887157
      ],
      "min": [
        0.007813000120222569,
        -0.9961240291595459
      ],
      "type": "VEC2"
    },
    {
      "bufferView": 0,
      "byteOffset": 2304,
      "componentType": 5125,
      "count": 4158,
      "type": "SCALAR"
    },
    {
      "bufferView": 2,
      "byteOffset": 65496,
      "componentType": 5126,
      "count": 2443,
      "max": [
        12.463278770446777,
        124.25396728515625,
        12.493361473083496
      ],
      "min": [
        -12.493361473083496,
        -0.0,
        -12.493313789367676
      ],
      "type": "VEC3"
    },
    {
      "bufferView": 2,
      "byteOffset": 94812,
      "componentType": 5126,
      "count": 2443,
      "max": [
        0.9968017339706421,
        0.5909580588340759,
        1.0
      ],
      "min": [
        -1.0,
        -0.5909650921821594,
        -1.0
      ],
      "type": "VEC3"
    },
    {
      "bufferView": 1,
      "byteOffset": 21832,
      "componentType": 5126,
      "count": 2443,
      "max": [
        0.9963989853858948,
        -0.0
      ],
      "min": [
        0.007813000120222569,
        -1.0000309944152832
      ],
      "type": "VEC2"
    },
    {
      "bufferView": 0,
      "byteOffset": 18936,
      "componentType": 5125,
      "count": 4467,
      "type": "SCALAR"
    },
    {
      "bufferView": 2,
      "byteOffset": 124128,
      "componentType": 5126,
      "count": 76,
      "max": [
        1.2441519498825073,
        6.880582809448242,
        12.25000286102295
      ],
      "min": [
        -1.2441519498825073,
        0.8183479905128479,
        -12.250001907348633
      ],
      "type": "VEC3"
    },
    {
      "bufferView": 2,
      "byteOffset": 125040,
      "componentType": 5126,
      "count": 76,
      "max": [
        1.4999999621068127e-05,
        2.300000051036477e-05,
        1.0
      ],
      "min": [
        -1.8999999156221747e-05,
        -1.4000000192027073e-05,
        -1.0
      ],
      "type": "VEC3"
    },
    {
      "bufferView": 1,
      "byteOffset": 41376,
      "componentType": 5126,
      "count": 76,
      "max": [
        0.9448819756507874,
        -0.03937000036239624
      ],
      "min": [
        0.05511799827218056,
        -0.8976380228996277
      ],
      "type": "VEC2"
    },
    {
      "bufferView": 0,
      "byteOffset": 36804,
      "componentType": 5125,
      "count": 144,
      "type": "SCALAR"
    },
    {
      "bufferView": 2,
      "byteOffset": 125952,
      "componentType": 5126,
      "count": 124,
      "max": [
        9.999999974752427e-07,
        0.00028700000257231295,
        12.493361473083496
      ],
      "min": [
        -12.493361473083496,
        0.0002859999949578196,
        0.0
      ],
      "type": "VEC3"
    },
    {
      "bufferView": 2,
      "byteOffset": 127440,
      "componentType": 5126,
      "count": 124,
      "max": [
        -0.0,
        -1.0,
        0.0
      ],
      "min": [
        -0.0,
        -1.0,
        0.0
      ],
      "type": "VEC3"
    },
    {
      "bufferView": 1,
      "byteOffset": 41984,
      "componentType": 5126,
      "count": 124,
      "max": [
        0.9980769753456116,
        -0.0019529999699443579
      ],
      "min": [
        0.0019529999699443579,
        -0.9980769753456116
      ],
      "type": "VEC2"
    },
    {
      "bufferView": 0,
      "byteOffset": 37380,
      "componentType": 5125,
      "count": 375,
      "type": "SCALAR"
    },
    {
      "bufferView": 2,
      "byteOffset": 128928,
      "componentType": 5126,
      "count": 136,
      "max": [
        12.493274688720703,
        0.00028700000257231295,
        12.493361473083496
      ],
      "min": [
        0.0,
        0.0,
        -0.0
      ],
      "type": "VEC3"
    },
    {
      "bufferView": 2,
      "byteOffset": 130560,
      "componentType": 5126,
      "count": 136,
      "max": [
        0.00034500000765547156,
        -0.9999997615814209,
        9.40000027185306e-05
      ],
      "min": [
        -0.0007009998080320656,
        -1.0,
        -0.0002859999658539891
      ],
      "type": "VEC3"
    },
    {
      "bufferView": 1,
      "byteOffset": 42976,
      "componentType": 5126,
      "count": 136,
      "max": [
        0.9980769753456116,
        -0.0019529999699443579
      ],
      "min": [
        0.0019529999699443579,
        -0.9980769753456116
      ],
      "type": "VEC2"
    },
    {
      "bufferView": 0,
      "byteOffset": 38880,
      "componentType": 5125,
      "count": 372,
      "type": "SCALAR"
    },
    {
      "bufferView": 2,
      "byteOffset": 132192,
      "componentType": 5126,
      "count": 123,
      "max": [
        -0.0,
        0.00028700000257231295,
        9.999999974752427e-07
      ],
      "min": [
        -12.493361473083496,
        0.0002859999949578196,
        -12.49327278137207
      ],
      "type": "VEC3"
    },
    {
      "bufferView": 2,
      "byteOffset": 133668,
      "componentType": 5126,
      "count": 123,
      "max": [
        -0.0,
        -1.0,
        0.0
      ],
      "min": [
        -0.0,
        -1.0,
        0.0
      ],
      "type": "VEC3"
    },
    {
      "bufferView": 1,
      "byteOffset": 44064,
      "componentType": 5126,
      "count": 123,
      "max": [
        0.9980769753456116,
        -0.0019529999699443579
      ],
      "min": [
        0.0019529999699443579,
        -0.9980769753456116
      ],
      "type": "VEC2"
    },
    {
      "bufferView": 0,
      "byteOffset": 40368,
      "componentType": 5125,
      "count": 375,
      "type": "SCALAR"
    },
    {
      "bufferView": 2,
      "byteOffset": 135144,
      "componentType": 5126,
      "count": 126,
      "max": [
        12.49327278137207,
        0.00028700000257231295,
        -0.0
      ],
      "min": [
        0.0,
        0.0002859999949578196,
        -12.493279457092285
      ],
      "type": "VEC3"
    },
    {
      "bufferView": 2,
      "byteOffset": 136656,
      "componentType": 5126,
      "count": 126,
      "max": [
        -0.0,
        -1.0,
        0.0
      ],
      "min": [
        -0.0,
        -1.0,
        0.0
      ],
      "type": "VEC3"
    },
    {
      "bufferView": 1,
      "byteOffset": 45048,
      "componentType": 5126,
      "count": 126,
      "max": [
        0.9980769753456116,
        -0.0019529999699443579
      ],
      "min": [
        0.0019529999699443579,
        -0.9980769753456116
      ],
      "type": "VEC2"
    },
    {
      "bufferView": 0,
      "byteOffset": 41868,
      "componentType": 5125,
      "count": 372,
      "type": "SCALAR"
    }
  ],
  "asset": {
    "extras": {
      "author": "sonicblade (https://sketchfab.com/SonicBlade)",
      "license": "CC-BY-4.0 (http://creativecommons.org/licenses/by/4.0/)",
      "source": "https://sketchfab.com/3d-models/kingdom-hearts-vanitas-and-ventus-station-0ab6db0f3cf04850884728ea731035e2",
      "title": "Kingdom Hearts: Vanitas And Ventus Station"
    },
    "generator": "Sketchfab-12.68.0",
    "version": "2.0"
  },
  "bufferViews": [
    {
      "buffer": 0,
      "byteLength": 43356,
      "name": "floatBufferViews",
      "target": 34963
    },
    {
      "buffer": 0,
      "byteLength": 46056,
      "byteOffset": 43356,
      "byteStride": 8,
      "name": "floatBufferViews",
      "target": 34962
    },
    {
      "buffer": 0,
      "byteLength": 138168,
      "byteOffset": 89412,
      "byteStride": 12,
      "name": "floatBufferViews",
      "target": 34962
    }
  ],
  "buffers": [
    {
      "byteLength": 227580,
      "uri": "scene.bin"
    }
  ],
  "images": [
    {
      "uri": "textures/377_material00_baseColor.png"
    },
    {
      "uri": "textures/377_material02_baseColor.png"
    },
    {
      "uri": "textures/377_material04_baseColor.png"
    },
    {
      "uri": "textures/377_material05_baseColor.png"
    },
    {
      "uri": "textures/377_material06_baseColor.png"
    },
    {
      "uri": "textures/377_material07_baseColor.png"
    },
    {
      "uri": "textures/377_material08_baseColor.png"
    }
  ],
  "materials": [
    {
      "doubleSided": true,
      "name": "377_material00",
      "pbrMetallicRoughness": {
        "baseColorTexture": {
          "index": 0
        },
        "metallicFactor": 0.0,
        "roughnessFactor": 0.6
      }
    },
    {
      "doubleSided": true,
      "name": "377_material01",
      "pbrMetallicRoughness": {
        "baseColorTexture": {
          "index": 0
        },
        "metallicFactor": 0.0,
        "roughnessFactor": 0.6
      }
    },
    {
      "doubleSided": true,
      "name": "377_material02",
      "pbrMetallicRoughness": {
        "baseColorTexture": {
          "index": 1
        },
        "metallicFactor": 0.0,
        "roughnessFactor": 0.6
      }
    },
    {
      "doubleSided": true,
      "name": "377_material03",
      "pbrMetallicRoughness": {
        "baseColorTexture": {
          "index": 1
        },
        "metallicFactor": 0.0,
        "roughnessFactor": 0.6
      }
    },
    {
      "doubleSided": true,
      "name": "377_material04",
      "pbrMetallicRoughness": {
        "baseColorTexture": {
          "index": 2
        },
        "metallicFactor": 0.0,
        "roughnessFactor": 0.6
      }
    },
    {
      "doubleSided": true,
      "name": "377_material05",
      "pbrMetallicRoughness": {
        "baseColorTexture": {
          "index": 3
        },
        "metallicFactor": 0.0,
        "roughnessFactor": 0.6
      }
    },
    {
      "doubleSided": true,
      "name": "377_material06",
      "pbrMetallicRoughness": {
        "baseColorTexture": {
          "index": 4
        },
        "metallicFactor": 0.0,
        "roughnessFactor": 0.6
      }
    },
    {
      "doubleSided": true,
      "name": "377_material07",
      "pbrMetallicRoughness": {
        "baseColorTexture": {
          "index": 5
        },
        "metallicFactor": 0.0,
        "roughnessFactor": 0.6
      }
    },
    {
      "doubleSided": true,
      "name": "377_material08",
      "pbrMetallicRoughness": {
        "baseColorTexture": {
          "index": 6
        },
        "metallicFactor": 0.0,
        "roughnessFactor": 0.6
      }
    }
  ],
  "meshes": [
    {
      "name": "Object_0",
      "primitives": [
        {
          "attributes": {
            "NORMAL": 1,
            "POSITION": 0,
            "TEXCOORD_0": 2
          },
          "indices": 3,
          "material": 0,
          "mode": 4
        }
      ]
    },
    {
      "name": "Object_1",
      "primitives": [
        {
          "attributes": {
            "NORMAL": 5,
            "POSITION": 4,
            "TEXCOORD_0": 6
          },
          "indices": 7,
          "material": 1,
          "mode": 4
        }
      ]
    },
    {
      "name": "Object_2",
      "primitives": [
        {
          "attributes": {
            "NORMAL": 9,
            "POSITION": 8,
            "TEXCOORD_0": 10
          },
          "indices": 11,
          "material": 2,
          "mode": 4
        }
      ]
    },
    {
      "name": "Object_3",
      "primitives": [
        {
          "attributes": {
            "NORMAL": 13,
            "POSITION": 12,
            "TEXCOORD_0": 14
          },
          "indices": 15,
          "material": 3,
          "mode": 4
        }
      ]
    },
    {
      "name": "Object_4",
      "primitives": [
        {
          "attributes": {
            "NORMAL": 17,
            "POSITION": 16,
            "TEXCOORD_0": 18
          },
          "indices": 19,
          "material": 4,
          "mode": 4
        }
      ]
    },
    {
      "name": "Object_5",
      "primitives": [
        {
          "attributes": {
            "NORMAL": 21,
            "POSITION": 20,
            "TEXCOORD_0": 22
          },
          "indices": 23,
          "material": 5,
          "mode": 4
        }
      ]
    },
    {
      "name": "Object_6",
      "primitives": [
        {
          "attributes": {
            "NORMAL": 25,
            "POSITION": 24,
            "TEXCOORD_0": 26
          },
          "indices": 27,
          "material": 6,
          "mode": 4
        }
      ]
    },
    {
      "name": "Object_7",
      "primitives": [
        {
          "attributes": {
            "NORMAL": 29,
            "POSITION": 28,
            "TEXCOORD_0": 30
          },
          "indices": 31,
          "material": 7,
          "mode": 4
        }
      ]
    },
    {
      "name": "Object_8",
      "primitives": [
        {
          "attributes": {
            "NORMAL": 33,
            "POSITION": 32,
            "TEXCOORD_0": 34
          },
          "indices": 35,
          "material": 8,
          "mode": 4
        }
      ]
    }
  ],
  "nodes": [
    {
      "children": [
        1
      ],
      "matrix": [
        1.0,
        0.0,
        0.0,
        0.0,
        0.0,
        2.220446049250313e-16,
        -1.0,
        0.0,
        0.0,
        1.0,
        2.220446049250313e-16,
        0.0,
        0.0,
        0.0,
        0.0,
        1.0
      ],
      "name": "Sketchfab_model"
    },
    {
      "children": [
        2,
        3,
        4,
        5,
        6,
        7,
        8,
        9,
        10
      ],
      "name": "377out.obj.cleaner"
    },
    {
      "mesh": 0,
      "name": "Object_2"
    },
    {
      "mesh": 1,
      "name": "Object_3"
    },
    {
      "mesh": 2,
      "name": "Object_4"
    },
    {
      "mesh": 3,
      "name": "Object_5"
    },
    {
      "mesh": 4,
      "name": "Object_6"
    },
    {
      "mesh": 5,
      "name": "Object_7"
    },
    {
      "mesh": 6,
      "name": "Object_8"
    },
    {
      "mesh": 7,
      "name": "Object_9"
    },
    {
      "mesh": 8,
      "name": "Object_10"
    }
  ],
  "samplers": [
    {
      "magFilter": 9729,
      "minFilter": 9987,
      "wrapS": 10497,
      "wrapT": 10497
    }
  ],
  "scene": 0,
  "scenes": [
    {
      "name": "Sketchfab_Scene",
      "nodes": [
        0
      ]
    }
  ],
  "textures": [
    {
      "sampler": 0,
      "source": 0
    },
    {
      "sampler": 0,
      "source": 1
    },
    {
      "sampler": 0,
      "source": 2
    },
    {
      "sampler": 0,
      "source": 3
    },
    {
      "sampler": 0,
      "source": 4
    },
    {
      "sampler": 0,
      "source": 5
    },
    {
      "sampler": 0,
      "source": 6
    }
  ]
}
